Coordinates
version=1
nRows=19
nColumns=24
inDegrees=yes

Units are S.I. units (second, meters, Newtons, ...)
Angles are in degrees.

endheader
time	pelvis_tilt	pelvis_list	pelvis_rotation	pelvis_tx	pelvis_ty	pelvis_tz	hip_flexion_r	hip_adduction_r	hip_rotation_r	knee_angle_r	ankle_angle_r	subtalar_angle_r	mtp_angle_r	hip_flexion_l	hip_adduction_l	hip_rotation_l	knee_angle_l	ankle_angle_l	subtalar_angle_l	mtp_angle_l	lumbar_extension	lumbar_bending	lumbar_rotation
      4.26000000	     -8.83161223	      2.02129794	     -9.49001741	     -0.62077365	     -0.05164094	      0.68594408	     -9.09925827	     -0.04644642	      5.90829394	    -11.64513066	     13.53183366	      2.15924796	      6.40943135	     38.22652801	     -3.47463859	    -22.21003179	    -15.68724111	     -4.62597625	     16.36560347	     12.10279547	      5.02054677	     -0.46807606	     11.81503096
      4.26500000	     -8.92052258	      2.42716714	     -9.54114598	     -0.61309057	     -0.05281776	      0.68590312	     -9.15224203	     -0.55402334	      5.84966758	    -12.23417757	     13.38598744	      2.30133458	      6.44063221	     38.28584593	     -3.06809156	    -22.20450818	    -16.13893330	     -5.30782344	     15.20279731	     12.53528560	      5.26574045	     -0.94707700	     11.82371347
      4.27000000	     -9.01209669	      2.85250976	     -9.46751480	     -0.60528013	     -0.05399455	      0.68574025	     -9.21750279	     -1.07318798	      5.64887876	    -12.82160507	     13.20305477	      2.50250699	      6.49071786	     38.40455047	     -2.58449410	    -22.05546548	    -16.69767583	     -6.11829050	     14.02987757	     13.21018947	      5.53258313	     -1.47139277	     11.72580304
      4.27500000	     -9.13087087	      3.32580972	     -9.51215322	     -0.59746904	     -0.05509280	      0.68580365	     -9.21723712	     -1.63673836	      5.74610347	    -13.43782627	     12.92660315	      2.47596814	      6.54126830	     38.60014614	     -2.18598712	    -22.05323492	    -17.45550218	     -6.77305542	     13.17172631	     13.29567950	      5.84714965	     -2.03348890	     11.77416275
      4.28000000	     -9.19378082	      3.74467446	     -9.45132895	     -0.58974520	     -0.05608080	      0.68551981	     -9.23151376	     -2.17378033	      5.54815471	    -14.15127765	     12.59537399	      2.79197656	      6.69049436	     38.77609288	     -1.69510981	    -21.53750863	    -18.22025673	     -7.57493817	     11.69478329	     13.67514501	      6.06149344	     -2.53294521	     11.69554272
      4.28500000	     -9.27315502	      4.21842901	     -9.37535099	     -0.58192472	     -0.05702351	      0.68532596	     -9.21177878	     -2.75572034	      5.40663439	    -14.89209577	     12.19725759	      3.01353169	      6.85928859	     39.02438618	     -1.19730028	    -21.13664029	    -19.13495845	     -8.25985937	     10.57043897	     13.88623306	      6.32085007	     -3.10687997	     11.60415536
      4.29000000	     -9.34013712	      4.68257520	     -9.27779841	     -0.57408597	     -0.05788452	      0.68507772	     -9.17265215	     -3.33320494	      5.24056354	    -15.69726387	     11.69575514	      3.26683848	      7.06945433	     39.29714604	     -0.69284798	    -20.63723889	    -20.14627434	     -8.80597479	      9.49553067	     13.95553281	      6.56425833	     -3.67147937	     11.47839582
      4.29500000	     -9.41402948	      5.17968832	     -9.16174914	     -0.56614134	     -0.05868908	      0.68485705	     -9.10724106	     -3.93584877	      5.15930604	    -16.54779385	     11.09859105	      3.43842088	      7.25566364	     39.59842734	     -0.16918810	    -20.19795633	    -21.23355339	     -9.17993185	      8.66340879	     13.91676065	      6.83705030	     -4.27823481	     11.34370359
      4.30000000	     -9.45514226	      5.57967717	     -8.99774986	     -0.55836499	     -0.05941809	      0.68444676	     -9.00997413	     -4.46650632	      4.81686596	    -17.52206190	     10.44317175	      3.92170912	      7.62712230	     39.89912933	      0.33519300	    -19.52190857	    -22.38541083	     -9.46473484	      7.69113766	     13.79371380	      7.01948185	     -4.77991336	     11.18981882
      4.30500000	     -9.50059736	      5.99531451	     -8.82896787	     -0.55042775	     -0.06006313	      0.68406150	     -8.89312753	     -5.01459538	      4.55960499	    -18.53111762	      9.63443801	      4.37369034	      8.02095025	     40.18308336	      0.83706411	    -19.02277256	    -23.54800182	     -9.55482037	      6.99379335	     13.63671220	      7.23687159	     -5.29715884	     11.02017908
      4.31000000	     -9.53743607	      6.37410717	     -8.64593839	     -0.54252822	     -0.06064432	      0.68365806	     -8.72993430	     -5.52968229	      4.27772723	    -19.64512275	      8.73506622	      4.87871328	      8.46959626	     40.44027123	      1.31247458	    -18.57173901	    -24.70621299	     -9.49087923	      6.44681401	     13.45514190	      7.42675489	     -5.77925151	     10.83058369
      4.31500000	     -9.56891237	      6.71394686	     -8.45377778	     -0.53464673	     -0.06114148	      0.68325582	     -8.51878329	     -6.01055754	      3.97860225	    -20.85567239	      7.72709030	      5.43853821	      8.94230383	     40.65177382	      1.75322361	    -18.21376746	    -25.82211578	     -9.28880520	      6.03555604	     13.29306909	      7.60144580	     -6.22246000	     10.64089401
      4.32000000	     -9.57944354	      7.00586208	     -8.26093071	     -0.52681169	     -0.06150608	      0.68284800	     -8.27451135	     -6.45300996	      3.67552802	    -22.15269513	      6.58453638	      6.05523714	      9.44657745	     40.78332880	      2.15496811	    -17.92251098	    -26.86126139	     -8.96650173	      5.75658517	     13.17516991	      7.73673794	     -6.61666033	     10.46268651
      4.32500000	     -9.58650309	      7.27693191	     -8.05707497	     -0.51900714	     -0.06174500	      0.68244016	     -7.97998785	     -6.88061621	      3.37345364	    -23.52486337	      5.31899742	      6.70282203	      9.99977389	     40.83866933	      2.54929632	    -17.69764652	    -27.78557221	     -8.55664139	      5.56909962	     13.09892158	      7.86104219	     -6.99091665	     10.28673786
      4.33000000	     -9.58809777	      7.52022100	     -7.84754817	     -0.51126985	     -0.06184635	      0.68202117	     -7.63172342	     -7.28534736	      3.08465182	    -24.97336892	      3.93574502	      7.35799840	     10.55153267	     40.81243716	      2.92501484	    -17.54694162	    -28.58691055	     -8.08067461	      5.47369202	     13.10804829	      7.96142144	     -7.33727081	     10.11056675
      4.33500000	     -9.59242300	      7.74762731	     -7.62773466	     -0.50362218	     -0.06182593	      0.68159212	     -7.21422449	     -7.68069653	      2.78504890	    -26.50098901	      2.47148791	      8.04106592	     11.10271770	     40.71490985	      3.29536465	    -17.45640627	    -29.26024764	     -7.55435498	      5.45688069	     13.20224780	      8.05218152	     -7.66671626	      9.93023178
      4.34000000	     -9.60178043	      7.96957614	     -7.40281184	     -0.49606130	     -0.06168005	      0.68115224	     -6.72675201	     -8.07642835	      2.49347705	    -28.09274674	      0.94011338	      8.72193205	     11.66293049	     40.54567961	      3.67056574	    -17.41173185	    -29.79573973	     -6.99529420	      5.49920811	     13.36743456	      8.13480320	     -7.98969591	      9.75102718
      4.34500000	     -9.61633594	      8.19485429	     -7.17766777	     -0.48859675	     -0.06141388	      0.68068801	     -6.16774324	     -8.48236296	      2.21929604	    -29.73955167	     -0.63453440	      9.37746876	     12.24510443	     40.31317568	      4.05672296	    -17.40672160	    -30.20388716	     -6.42406640	      5.59866446	     13.59838922	      8.21361807	     -8.30968468	      9.57702465
      4.35000000	     -9.63664295	      8.42355912	     -6.95742060	     -0.48124658	     -0.06103729	      0.68023181	     -5.53584012	     -8.88991219	      1.98748059	    -31.43664806	     -2.22123094	      9.96382648	     12.82122633	     40.02337750	      4.44855132	    -17.43589492	    -30.49206092	     -5.84708003	      5.73991884	     13.88384469	      8.28678822	     -8.63105242	      9.41531412
